<svg width="40.000000" height="40.000000" viewBox="0 0 40 40" fill="none" xmlns="http://www.w3.org/2000/svg" xmlns:xlink="http://www.w3.org/1999/xlink" id="mood-tracker-logo">
	<desc>
			Created with Pixso.
	</desc>
	<defs/>
	<path id="Vector" d="M0 20C0 10.57 0 5.85 2.92 2.92C5.85 0 10.57 0 20 0C29.42 0 34.14 0 37.07 2.92C40 5.85 40 10.57 40 20C40 29.42 40 34.14 37.07 37.07C34.14 40 29.42 40 20 40C10.57 40 5.85 40 2.92 37.07C0 34.14 0 29.42 0 20Z" fill="#4865DB" fill-opacity="1.000000" fill-rule="nonzero"/>
	<path id="Vector" d="M24 26C24.55 26 25.01 26.45 24.9 26.99C24.7 27.94 24.23 28.83 23.53 29.53C22.59 30.47 21.32 31 20 31C18.67 31 17.4 30.47 16.46 29.53C15.76 28.83 15.29 27.94 15.09 26.99C14.98 26.45 15.44 26 16 26L24 26Z" fill="#FFFFFF" fill-opacity="1.000000" fill-rule="nonzero"/>
	<path id="Vector" d="M26.1 17.77C25.56 17.91 25.24 18.47 25.51 18.95C25.79 19.46 26.19 19.9 26.67 20.25C27.42 20.79 28.33 21.05 29.26 20.99C30.18 20.93 31.05 20.55 31.73 19.91C32.4 19.28 32.84 18.43 32.96 17.52C33.08 16.6 32.88 15.67 32.39 14.88C31.9 14.1 31.16 13.5 30.28 13.21C29.4 12.91 28.45 12.93 27.59 13.25C27.03 13.46 26.54 13.78 26.13 14.2C25.75 14.6 25.92 15.22 26.4 15.5L26.9 15.79C27.68 16.23 27.52 17.39 26.66 17.62L26.1 17.77Z" fill="#FFFFFF" fill-opacity="1.000000" fill-rule="nonzero"/>
	<path id="Vector" d="M13.89 17.77C14.43 17.91 14.75 18.47 14.48 18.95C14.2 19.46 13.8 19.9 13.32 20.25C12.57 20.79 11.66 21.05 10.73 20.99C9.81 20.93 8.94 20.55 8.26 19.91C7.59 19.28 7.15 18.43 7.03 17.52C6.91 16.6 7.11 15.67 7.6 14.88C8.09 14.1 8.83 13.5 9.71 13.21C10.59 12.91 11.54 12.93 12.4 13.25C12.96 13.46 13.45 13.78 13.86 14.2C14.24 14.6 14.07 15.22 13.59 15.5L13.09 15.79C12.31 16.23 12.47 17.39 13.33 17.62L13.89 17.77Z" fill="#FFFFFF" fill-opacity="1.000000" fill-rule="nonzero"/>
</svg>
